<svg width="280" height="280" viewBox="0 0 280 280" fill="none" xmlns="http://www.w3.org/2000/svg">
<g id="pauseNPlay">
<rect x="280" width="280" height="280" rx="140" transform="rotate(90 280 0)" fill="#34B159"/>
<path id="vee" d="M165.999 232.932C163.535 237.565 159.857 241.44 155.359 244.142C150.861 246.845 145.713 248.273 140.465 248.273C135.218 248.273 130.069 246.845 125.571 244.142C121.073 241.44 117.395 237.565 114.932 232.932L47.7262 109.344C36.8934 89.4436 50.9769 65 73.2501 65H207.671C229.953 65 244.027 89.4436 233.214 109.344L165.999 232.932Z" fill="white"/>
<path id="play" d="M226.932 114.932C231.565 117.396 235.44 121.074 238.142 125.572C240.845 130.07 242.273 135.218 242.273 140.465C242.273 145.713 240.845 150.861 238.142 155.359C235.44 159.857 231.565 163.535 226.932 165.999L103.344 233.205C83.4436 244.037 59 229.954 59 207.681V73.26C59 50.9772 83.4436 36.9033 103.344 47.7168L226.932 114.932Z" fill="white"/>
<g id="pause">
<path d="M65 80.4608C65 66.3992 76.1417 55 89.8857 55C103.63 55 114.771 66.3992 114.771 80.4608V199.539C114.771 213.601 103.63 225 89.8857 225C76.1417 225 65 213.601 65 199.539V80.4608Z" fill="white"/>
<path d="M165.229 80.4608C165.229 66.3992 176.37 55 190.114 55C203.858 55 215 66.3992 215 80.4608V199.539C215 213.601 203.858 225 190.114 225C176.37 225 165.229 213.601 165.229 199.539V140V80.4608Z" fill="white"/>
</g>
</g>
</svg>
